# xmcd CD database file
#
# Track frame offsets:
#	150
#	18360
#	33808
#
# Disc length: 694 seconds
#
# Revision: 0
# Processed by: cddbd v1.5.1PL0 Copyright (c) Steve Scherf et al.
# Submitted via: CDex 1.51
#
DISCID=1502b403
DTITLE=後藤久美子 - 初恋に気づいて
DYEAR=1988
DGENRE=JPop
TTITLE0=初恋に気づいて
TTITLE1=北風の約束
TTITLE2=teardrop
EXTD=YEAR: 1988
EXTT0=
EXTT1=
EXTT2=
PLAYORDER=
